<?xml version="1.0" encoding="utf-8"?>
<!-- Generator: Adobe Illustrator 25.2.1, SVG Export Plug-In . SVG Version: 6.00 Build 0)  -->
<svg version="1.1" id="Layer_1" xmlns="http://www.w3.org/2000/svg" xmlns:xlink="http://www.w3.org/1999/xlink" x="0px" y="0px"
	 viewBox="0 0 800 800" style="enable-background:new 0 0 800 800;" xml:space="preserve">
<path d="M119.9,259.4c0,23.4,8.6,49.2,19.5,76.6c10.9,27.4,25,53.1,35.9,72.7c29.7,51.6,68,102.3,111.7,144.5s95.3,77.3,153.1,98.5
	c33.6,13.3,67.2,28.1,104.7,28.1c18.8,0,45.3-7,69.5-17.2c23.5-10.2,44.5-25.8,52.4-44.5c3.1-7,7-16.4,9.4-27.3
	c2.3-10.2,3.9-20.3,3.9-27.3c0-3.9,0-7.8-0.8-8.6c-2.4-4.7-7.8-8.6-14.1-12.5c-14.1-7-16.4-9.4-37.5-21.9
	c-21.9-12.5-44.5-26.6-64.1-36.7c-9.4-5.5-15.6-7.8-18-7.8c-12.5,0-28.1,17.2-41.4,35.9c-14.1,18.8-29.7,36-40.6,36
	c-5.5,0-11-2.4-17.2-6.2c-6.2-3.9-12.5-7-16.4-9.4c-68.8-39.1-114.9-85.2-153.9-153.1c-4.7-7.8-15.6-24.2-15.6-32.8
	c0-10.1,14.1-21.9,28.1-34.4c13.3-11.7,27.4-25.8,27.4-43c0-2.3-1.6-9.4-4.7-19.5c-7-20.3-16.4-43.8-24.2-66.4
	c-3.9-10.9-7-18.8-7.8-22.6c-1.6-2.4-2.3-5.5-3.1-9.4c-0.8-3.9-2.3-7-3.1-10.2c-2.3-7-6.2-12.5-10.1-15.6
	c-3.9-1.6-13.3-3.9-22.7-4.7c-9.4,0-20.3-0.8-25-0.8c-2.3,0-5.5,0-8.6,0.8h-10.2c-25,11-43,32.8-56.2,58.6
	C127.7,204.7,119.9,233.6,119.9,259.4L119.9,259.4z"/>
</svg>
